<svg xmlns="http://www.w3.org/2000/svg" width="988" height="1993" viewBox="0 0 988 1993">
  <g id="axle" transform="translate(-1276 -5814)">
    <g id="Rectangle_2" data-name="Rectangle 2" transform="translate(1276 5814)" fill="none" stroke="#707070" stroke-width="1" opacity="0">
      <rect width="988" height="1993" stroke="none"/>
      <rect x="0.5" y="0.5" width="987" height="1992" fill="none"/>
    </g>
    <g id="Layer_x0020_1" transform="translate(1275.99 5862)">
      <path id="Path_100" data-name="Path 100" d="M728.159,1455.957c9.065,7.033,28.664,31.157,34.461,39.221,56.134,78.074,77.134,66.483,74.9,142.223l-108.47,2.094-.894-183.538ZM193.958,363.538H427.251c12.513-8.379,19.808-21.269,19.808-40.557H265.975l-72.018,40.557Zm350.12,0H767.9l-70.347-39.617H525.714c-.252,18.708,6.541,31.323,18.365,39.617ZM594.322,52.485V105.48l35.709,35.709v75.49l-84,84,156.694-1.661,119,67c5.685-16.4,20.684-28.118,38.293-28.118.567,0,1.133.015,1.7.04V231.807a13.278,13.278,0,0,1,13.239-13.239h90.214a13.278,13.278,0,0,1,13.239,13.239V524.981a13.278,13.278,0,0,1-13.239,13.239H874.954a13.278,13.278,0,0,1-13.239-13.239V423.263c-.563.025-1.127.04-1.7.04a39.175,39.175,0,0,1-21.445-6.393L709.3,568.715H628.12c-14.043,21.588-84.805,60.586-94.336,83.267H504.605V585.563a16.26,16.26,0,0,0-16.21-16.215h0a16.26,16.26,0,0,0-16.21,16.215v66.418H447.309c-.655-19.705-1.684-40.2-2.074-61.662-11-10.186-17.852-16.846-21.755-21.6H254.429v-.939h-.2L124.961,415.97a39.719,39.719,0,0,1-8.26,4.1v115.8a13.278,13.278,0,0,1-13.239,13.239H13.249A13.278,13.278,0,0,1,.01,535.878V242.7a13.278,13.278,0,0,1,13.239-13.239h90.213A13.278,13.278,0,0,1,116.7,242.7v96.542a41.833,41.833,0,0,1,25.109,25.828l119-67,161.043,1.706-81.678-81.678v-.519a4.076,4.076,0,0,0,0-.853V139.76l34.767-34.767V48.864H340.175V0H630.544V51.341l-36.221,1.145ZM410.053,897.554a8.957,8.957,0,0,1,1.532,5.014v6.09a39.588,39.588,0,0,1,22.551,35.63v161.628a39.587,39.587,0,0,1-22.551,35.632v58.08c9.63-9.128,13.646-17.952,21.6-31.541,23.08-39.419,12.327-170,12.308-220.312l.043-48.5h26.643v376.042l.006.407v.009l.016.406v.009l.026.4v.009l.037.4v.009l.047.4a16.293,16.293,0,0,0,8.714,12.378h0c.349.179.706.346,1.07.5h0l.365.149h0l.369.141h0l.374.13h0l.378.123h0l.381.113h0l.385.1.39.1h0l.393.085h0l.4.076.4.067.4.057.406.047.409.036.412.026.415.016.416.006h0l.416-.006.415-.016.412-.026.409-.036.406-.047.4-.057.4-.067.4-.076h0l.393-.085h0l.39-.1.385-.1h0l.381-.113h0l.378-.123h0l.374-.13h0l.369-.141h0l.365-.149h0c.363-.154.72-.319,1.07-.5h0a16.286,16.286,0,0,0,8.714-12.378l.047-.4v-.009l.037-.4v-.009l.026-.4v-.009l.016-.406v-.009l.006-.407V653.129l28.6.2c.173,13.677-3.374,38.592-2.289,47.953v74.644c-.633,5.218-.186,10.692,0,16.985l.413,96.9c-.166,2.631-.3,5.755-.413,9.469h0v123.571l-.025,79.645c-.33,36.24.592,38.188,18.228,63.032l91.2,143.136,194.322,239.483c31.021,35.479,19.708,43.386,26.819,90.923,8.883-11.731,2.555-8.971,9.584-21.587V1497.2a13.278,13.278,0,0,1,13.239-13.239h90.213A13.278,13.278,0,0,1,987.73,1497.2v293.174a13.278,13.278,0,0,1-13.239,13.239H884.277a13.278,13.278,0,0,1-13.239-13.239V1699.6c-.509.306-1.046.646-1.618,1.021l-5.761-22.484-241.718.708c-5.33,21.468,14.373,23.932-54.857,21.206-12.679-24.506,11.364-21.106-24.939-23.634-35.306-2.456-20.5,4.733-29.922,23.546l-49.868.49c-13.479-29.746,12.241-17.632-19.95-22.63-62.933-.059-9.052,7.831-39.9,22.717-6.61-.006-30.8.778-35.513-.564-21.269-6.054-6.666,10.869-14.357-20.552L133.2,1678.8c-4.511,23.867-1.916,17.536-7.173,19.368v94.081a13.278,13.278,0,0,1-13.239,13.239H22.574a13.278,13.278,0,0,1-13.239-13.239V1499.075a13.278,13.278,0,0,1,13.239-13.239h90.213a13.278,13.278,0,0,1,13.239,13.239V1620.05c11.668,10.249-2.455,4.271,11.4,19.138,10.819-82.759-14.329-44.374,60.535-132.834,53.437-63.141,92.928-111.189,140.642-188.375,39.559-63.992,48.246-67.05,47.951-86.856a8.96,8.96,0,0,1-1.877-5.493v-16.787c-.607-5.939-1.3-12.953-1.961-21.445-1.274-16.258,1.2-31.569-1.744-44.487a39.614,39.614,0,0,1-25.768-37V944.283a39.623,39.623,0,0,1,29.473-38.174v-3.545a8.955,8.955,0,0,1,.626-3.293h-.623c-.189-49.037,3.651-115.285,31.087-158.1,15.723-24.537,27.483-61.645,31.689-87.726l24.729-.267v246.1H446.02l.01-10.649c-5.763-33.3-19.5-11.98-17.114-56.286,2.468-45.743,17.278,33.309,16.271-72.428-20.306-.86-23.7,11.524-30.064,35.045-5.341,19.755-5.5,41.641-5.481,62.319l.412,40.279Zm-137.3-356.762H433.036c4.857-8.483,9.288-21.684,9.985-44.1-1.2-13.941-4.3-26.826-7.347-40.748a426.642,426.642,0,0,0-16.985-45.089L244.825,405.3H151.049l121.7,135.495Zm258.17,0h67.4a38.77,38.77,0,0,0,1.466-10.319l.081-123.918c-51.533-1.183-66.128,69.993-68.946,134.237Zm98.973,0h61.73L812.483,406.238H629.971v1.079h-.01l-.064,133.474Zm-47.651,27.923H530.362c.031,15.336.579,29.472,1.237,41.1C538.532,606.5,564.438,589.777,582.244,568.715ZM483.517,1592.029l35.772-.309-.177,46.232-34.683,1.41-.912-47.332Zm-78.216-.973,62.179.081.116,48.054-60.3.06-1.992-48.193Zm-40.1-.076,22.365.454,1.96,46.388-22.3,1.614L365.2,1590.98Zm-110.98-116.193.907,163.505-93.952.972c-1.235-78.152,5.053-52.977,64.867-129.928l28.179-34.55Zm284.71-132.518c17.134-3.635,35.662-3.12,53.4-2.9,30.465.369,29.3.61,44.592,17.382,73.912,81.083,72.521,87,72.456,164.552-.034,38.809.794,78.571-.271,117.251l-155.729.721-1.24-47.567,105.81-.69.6-139.412-131,.46c-.793-44.3-6.356-76.655,11.385-109.791Zm-69.23,31.689,33.637,1.756.454,73.239-34.015,2.944ZM315.975,1581.145c7.489,14.37,3.434,5.429,33.543,12.113l.22,44.556-74.872,1.621c-2.549-35.913-.759-77.1-.806-113.147-.117-91.428-11.649-62.039,75.947-157.241,17.488-19,28.173-38.384,77.02-28.277,29.057,6.012,19.063,55.542,18.141,109.814l-128.013,1.75-1.181,128.813Zm86.532-329.2,32.114,13.16.108,53.632-22.248.059-19.95-.022-30.227-.391c7.31-19.62,26.85-46.348,40.2-66.437ZM531.3,1176.759l90.171,141.559-77.2.04C543.786,1256.365,529.816,1234.413,531.3,1176.759Z" transform="translate(0)" fill="#bdbfc1" fill-rule="evenodd"/>
    </g>
  </g>
</svg>
