<?xml version="1.0" encoding="iso-8859-1"?>
<!-- Generator: Adobe Illustrator 18.0.0, SVG Export Plug-In . SVG Version: 6.00 Build 0)  -->
<!DOCTYPE svg PUBLIC "-//W3C//DTD SVG 1.1//EN" "http://www.w3.org/Graphics/SVG/1.1/DTD/svg11.dtd">
<svg version="1.1" id="Capa_1" xmlns="http://www.w3.org/2000/svg" xmlns:xlink="http://www.w3.org/1999/xlink" x="0px" y="0px"
	 viewBox="0 0 233.393 233.393" style="enable-background:new 0 0 233.393 233.393;" xml:space="preserve">
<g>
	<path d="M225.893,59.673H7.5c-4.143,0-7.5,3.358-7.5,7.5v129.807c0,4.142,3.357,7.5,7.5,7.5h218.393c4.143,0,7.5-3.358,7.5-7.5
		V67.173C233.393,63.031,230.035,59.673,225.893,59.673z M218.393,189.479H15V74.673h203.393V189.479z"/>
	<path d="M35.184,139.575h43.064c4.143,0,7.5-3.358,7.5-7.5c0-4.142-3.357-7.5-7.5-7.5H35.184c-4.143,0-7.5,3.358-7.5,7.5
		C27.684,136.217,31.041,139.575,35.184,139.575z"/>
	<path d="M155.145,139.575h14.033v14.033c0,4.142,3.357,7.5,7.5,7.5c4.143,0,7.5-3.358,7.5-7.5v-14.033h14.031
		c4.143,0,7.5-3.358,7.5-7.5c0-4.142-3.357-7.5-7.5-7.5h-14.031v-14.031c0-4.142-3.357-7.5-7.5-7.5c-4.143,0-7.5,3.358-7.5,7.5
		v14.031h-14.033c-4.143,0-7.5,3.358-7.5,7.5C147.645,136.217,151.002,139.575,155.145,139.575z"/>
	<path d="M35.184,43.913h43.064c4.143,0,7.5-3.358,7.5-7.5s-3.357-7.5-7.5-7.5H35.184c-4.143,0-7.5,3.358-7.5,7.5
		S31.041,43.913,35.184,43.913z"/>
	<path d="M155.145,43.913h43.064c4.143,0,7.5-3.358,7.5-7.5s-3.357-7.5-7.5-7.5h-43.064c-4.143,0-7.5,3.358-7.5,7.5
		S151.002,43.913,155.145,43.913z"/>
</g>
<g>
</g>
<g>
</g>
<g>
</g>
<g>
</g>
<g>
</g>
<g>
</g>
<g>
</g>
<g>
</g>
<g>
</g>
<g>
</g>
<g>
</g>
<g>
</g>
<g>
</g>
<g>
</g>
<g>
</g>
</svg>
