<svg xmlns="http://www.w3.org/2000/svg" width="998.956" height="2000.5" viewBox="0 0 998.956 2000.5">
  <g id="car" transform="translate(2.072 0.44)">
    <g id="_2661964279920">
      <g id="Group_1" data-name="Group 1">
        <path id="Path_7" data-name="Path 7" d="M922.55,1718.19c-.18,23.26-3.3,130.4-44.65,183.56,0,0-23.75,43.7-127.3,57.95,0,0-2.85,6.65-16.15,2.85,0,0-36.1,24.7-237.49,32.3" fill="none" stroke="#c4c4c4" stroke-linecap="round" stroke-linejoin="round" stroke-miterlimit="2.613" stroke-width="8" fill-rule="evenodd"/>
      </g>
      <g id="Group_2" data-name="Group 2">
        <path id="Path_8" data-name="Path 8" d="M918.33,1535.06c3.13,40.8,5.98,90.41,5.85,133.2" fill="none" stroke="#c4c4c4" stroke-linecap="round" stroke-linejoin="round" stroke-miterlimit="2.613" stroke-width="8" fill-rule="evenodd"/>
      </g>
      <g id="Group_3" data-name="Group 3">
        <path id="Path_9" data-name="Path 9" d="M912.49,732.86l4.39,405.53s-3.27,207.59-7.07,306.38c0,0,1.48,12.92,3.53,33.67" fill="none" stroke="#c4c4c4" stroke-linecap="round" stroke-linejoin="round" stroke-miterlimit="2.613" stroke-width="8" fill-rule="evenodd"/>
      </g>
      <g id="Group_4" data-name="Group 4">
        <path id="Path_10" data-name="Path 10" d="M628.55,20.17A367.245,367.245,0,0,1,771.53,55.83c44.69,21.36,60.8,29.9,92.15,68.4,0,0,13.3,17.1,24.21,52.7,0,0,26.14,36.1,39.44,177.19,0,0,7.6,195.2-16.15,254.1l.45,42.63,79.6,74.33" fill="none" stroke="#c4c4c4" stroke-linecap="round" stroke-linejoin="round" stroke-miterlimit="2.613" stroke-width="8" fill-rule="evenodd"/>
      </g>
      <g id="Group_5" data-name="Group 5">
        <path id="Path_11" data-name="Path 11" d="M858.59,1610.26s12.05-43.7,18.39-224.84c0,0,6.95-181.75,7.6-231.79l1.9-538.29V517.8s0-22.8-6.35,3.8L830.92,849.61s-8.85,68.4-10.15,103.24c0,0-6.95,142.5-8.21,245.74,0,0-5.89,280.54-5.89,335.64l-.46,80.44s-3.15,20.25,8.25,52.55l16.95,46.13,1.14,2.93" fill="none" stroke="#c4c4c4" stroke-linecap="round" stroke-linejoin="round" stroke-miterlimit="2.613" stroke-width="8" fill-rule="evenodd"/>
      </g>
      <g id="Group_6" data-name="Group 6">
        <path id="Path_12" data-name="Path 12" d="M803.69,1770.43s29.79-19.61,54.91-160.16" fill="none" stroke="#c4c4c4" stroke-linecap="round" stroke-linejoin="round" stroke-miterlimit="2.613" stroke-width="8" fill-rule="evenodd"/>
      </g>
      <g id="Group_7" data-name="Group 7">
        <path id="Path_13" data-name="Path 13" d="M200.15,1770.43s-29.75-19.61-54.91-160.16" fill="none" stroke="#c4c4c4" stroke-linecap="round" stroke-linejoin="round" stroke-miterlimit="2.613" stroke-width="8" fill-rule="evenodd"/>
      </g>
      <g id="Group_8" data-name="Group 8">
        <path id="Path_14" data-name="Path 14" d="M898.49,1636.86a86.729,86.729,0,0,1-39.9-26.6,64.629,64.629,0,0,1-8.7-14.55c-4.26-9.5-27.85-46.4-43.39-61.44" fill="none" stroke="#c4c4c4" stroke-linecap="round" stroke-linejoin="round" stroke-miterlimit="2.613" stroke-width="8" fill-rule="evenodd"/>
      </g>
      <g id="Group_9" data-name="Group 9">
        <path id="Path_15" data-name="Path 15" d="M902.29,1629.26s14.59-10.75,20.29-20.25" fill="none" stroke="#c4c4c4" stroke-linecap="round" stroke-linejoin="round" stroke-miterlimit="2.613" stroke-width="8" fill-rule="evenodd"/>
      </g>
      <g id="Group_10" data-name="Group 10">
        <path id="Path_16" data-name="Path 16" d="M888.99,1839.51s10.15-15.2,14.59-17.71,9.35-13.95,9.35-13.95" fill="none" stroke="#c4c4c4" stroke-linecap="round" stroke-linejoin="round" stroke-miterlimit="2.613" stroke-width="8" fill-rule="evenodd"/>
      </g>
      <g id="Group_11" data-name="Group 11">
        <path id="Path_17" data-name="Path 17" d="M796.73,1876.25s2.96,1.25,4.22,8.25l5.09,29.07,3.15,12.05,2.93,6.35" fill="none" stroke="#c4c4c4" stroke-linecap="round" stroke-linejoin="round" stroke-miterlimit="2.613" stroke-width="8" fill-rule="evenodd"/>
      </g>
      <g id="Group_12" data-name="Group 12">
        <path id="Path_18" data-name="Path 18" d="M750.64,1959.55c99.71-38.38,122.55-69.99,122.55-69.99,4.41-2.55,8.21-13.3,8.21-13.3,8.89-20.9,11.4-100.7,11.4-100.7-.61-10.75-5.05,0-5.05,0s-20.9,44.95-29.15,65.85-33.55,61.44-60.15,79.19a416.906,416.906,0,0,1-50.06,32.91l-13.91,8.89" fill="none" stroke="#c4c4c4" stroke-linecap="round" stroke-linejoin="round" stroke-miterlimit="2.613" stroke-width="8" fill-rule="evenodd"/>
      </g>
      <g id="Group_13" data-name="Group 13">
        <path id="Path_19" data-name="Path 19" d="M747.33,1723l10.15-458.53s7.6-309.04,22.8-391.39" fill="none" stroke="#c4c4c4" stroke-linecap="round" stroke-linejoin="round" stroke-miterlimit="2.613" stroke-width="8" fill-rule="evenodd"/>
      </g>
      <g id="Group_14" data-name="Group 14">
        <path id="Path_20" data-name="Path 20" d="M765.5,1723l10.15-458.53s5.89-305.89,21.09-388.27" fill="none" stroke="#c4c4c4" stroke-linecap="round" stroke-linejoin="round" stroke-miterlimit="2.613" stroke-width="8" fill-rule="evenodd"/>
      </g>
      <g id="Group_15" data-name="Group 15">
        <path id="Path_21" data-name="Path 21" d="M812.39,1198.62s42.41-20.78,62.05-44.23c0,0,3.15-.65,10.15-2.55a296.124,296.124,0,0,0,32.31-13.58" fill="none" stroke="#c4c4c4" stroke-linecap="round" stroke-linejoin="round" stroke-miterlimit="2.613" stroke-width="8" fill-rule="evenodd"/>
      </g>
      <g id="Group_16" data-name="Group 16">
        <path id="Path_22" data-name="Path 22" d="M916.54,1070.68s6.35,1.25,6.65-7.6c0,0,1.9-43.39-6.31-41.49" fill="none" stroke="#c4c4c4" stroke-linecap="round" stroke-linejoin="round" stroke-miterlimit="2.613" stroke-width="8" fill-rule="evenodd"/>
      </g>
      <g id="Group_17" data-name="Group 17">
        <path id="Path_23" data-name="Path 23" d="M916.88,1109.32s5.05,2.17,6.65-6.04c0,0,3-4.75,5.85-51.3v-7.26s.8-45.29-12.5-50.69" fill="none" stroke="#c4c4c4" stroke-linecap="round" stroke-linejoin="round" stroke-miterlimit="2.613" stroke-width="8" fill-rule="evenodd"/>
      </g>
      <g id="Group_18" data-name="Group 18">
        <path id="Path_24" data-name="Path 24" d="M904.5,1548.78s6.27,1.52,6.99-7.33c0,0,3.8-43.24-4.52-41.8" fill="none" stroke="#c4c4c4" stroke-linecap="round" stroke-linejoin="round" stroke-miterlimit="2.613" stroke-width="8" fill-rule="evenodd"/>
      </g>
      <g id="Group_19" data-name="Group 19">
        <path id="Path_25" data-name="Path 25" d="M903.13,1587.31s4.94,2.39,6.92-5.78c0,0,3.19-4.56,8.06-50.96l.34-7.26s2.77-45.22-10.26-51.18" fill="none" stroke="#c4c4c4" stroke-linecap="round" stroke-linejoin="round" stroke-miterlimit="2.613" stroke-width="8" fill-rule="evenodd"/>
      </g>
      <g id="Group_20" data-name="Group 20">
        <path id="Path_26" data-name="Path 26" d="M900.92,714.1c-3,1.52-8.32,2.85-11.4-4.71,0,0-5.24-28.04,2.36-39.9a5.248,5.248,0,0,1,6.61-1.33" fill="none" stroke="#c4c4c4" stroke-linecap="round" stroke-linejoin="round" stroke-miterlimit="2.613" stroke-width="8" fill-rule="evenodd"/>
      </g>
      <g id="Group_21" data-name="Group 21">
        <path id="Path_27" data-name="Path 27" d="M812.84,1160.62s43.74-25.72,62.24-52.51" fill="none" stroke="#c4c4c4" stroke-linecap="round" stroke-linejoin="round" stroke-miterlimit="2.613" stroke-width="8" fill-rule="evenodd"/>
      </g>
      <g id="Group_22" data-name="Group 22">
        <path id="Path_28" data-name="Path 28" d="M843.74,764.49s23.75-13.3,34.65-27.09V721.25s-19.95,18.05-31.35,24.24" fill="none" stroke="#c4c4c4" stroke-linecap="round" stroke-linejoin="round" stroke-miterlimit="2.613" stroke-width="8" fill-rule="evenodd"/>
      </g>
      <g id="Group_23" data-name="Group 23">
        <path id="Path_29" data-name="Path 29" d="M868.93,1115.02s2.85-188.55,3.8-370.45" fill="none" stroke="#c4c4c4" stroke-linecap="round" stroke-linejoin="round" stroke-miterlimit="2.613" stroke-width="8" fill-rule="evenodd"/>
      </g>
      <g id="Group_24" data-name="Group 24">
        <path id="Path_30" data-name="Path 30" d="M812.39,1234.72s43.21-18.05,60.8-34.69l2.36-91.2" fill="none" stroke="#c4c4c4" stroke-linecap="round" stroke-linejoin="round" stroke-miterlimit="2.613" stroke-width="8" fill-rule="evenodd"/>
      </g>
      <g id="Group_25" data-name="Group 25">
        <path id="Path_31" data-name="Path 31" d="M505.95,1977.75l.55-3s-.49-3.8-5.7-2.85" fill="none" stroke="#c4c4c4" stroke-linecap="round" stroke-linejoin="round" stroke-miterlimit="2.613" stroke-width="8" fill-rule="evenodd"/>
      </g>
      <g id="Group_26" data-name="Group 26">
        <path id="Path_32" data-name="Path 32" d="M506.5,1977.1s11.4-2.36,3.31-9.01l-7.6-.49" fill="none" stroke="#c4c4c4" stroke-linecap="round" stroke-linejoin="round" stroke-miterlimit="2.613" stroke-width="8" fill-rule="evenodd"/>
      </g>
      <g id="Group_27" data-name="Group 27">
        <path id="Path_33" data-name="Path 33" d="M801.63,1768.57s21.7,31.65,13,81.96" fill="none" stroke="#c4c4c4" stroke-linecap="round" stroke-linejoin="round" stroke-miterlimit="2.613" stroke-width="8" fill-rule="evenodd"/>
      </g>
      <g id="Group_28" data-name="Group 28">
        <path id="Path_34" data-name="Path 34" d="M810.87,1844.56a89.052,89.052,0,0,1-16.23,34.54" fill="none" stroke="#c4c4c4" stroke-linecap="round" stroke-linejoin="round" stroke-miterlimit="2.613" stroke-width="8" fill-rule="evenodd"/>
      </g>
      <g id="Group_29" data-name="Group 29">
        <path id="Path_35" data-name="Path 35" d="M874.14,561.65s2.85-34.65-21.39-49.4c0,0-9.01-4.26-10.91-19.95a138.8,138.8,0,0,0-13.29-33.26c-5.85-10.45-11.4-21.85-10.94-39.41" fill="none" stroke="#c4c4c4" stroke-linecap="round" stroke-linejoin="round" stroke-miterlimit="2.613" stroke-width="8" fill-rule="evenodd"/>
      </g>
      <g id="Group_30" data-name="Group 30">
        <path id="Path_36" data-name="Path 36" d="M537.85,8.77a67.2,67.2,0,0,0-20.9-5.21l-15.2,8.82" fill="none" stroke="#c4c4c4" stroke-linecap="round" stroke-linejoin="round" stroke-miterlimit="2.613" stroke-width="8" fill-rule="evenodd"/>
      </g>
      <g id="Group_31" data-name="Group 31">
        <path id="Path_37" data-name="Path 37" d="M807.3,1480.38s35.04,46.28,38.84,56.43c0,0,1.9,6.95,6.35,1.9l6.65-4.56" fill="none" stroke="#c4c4c4" stroke-linecap="round" stroke-linejoin="round" stroke-miterlimit="2.613" stroke-width="8" fill-rule="evenodd"/>
      </g>
      <g id="Group_32" data-name="Group 32">
        <path id="Path_38" data-name="Path 38" d="M859.39,1533.58l-.57,18.05c-.65,19.95-10.91,6.73-10.91,6.73l-40.66-48.22" fill="none" stroke="#c4c4c4" stroke-linecap="round" stroke-linejoin="round" stroke-miterlimit="2.613" stroke-width="8" fill-rule="evenodd"/>
      </g>
      <g id="Group_33" data-name="Group 33">
        <line id="Line_1" data-name="Line 1" x1="9.81" y2="330.59" transform="translate(859.39 1202.99)" fill="none" stroke="#c4c4c4" stroke-linecap="round" stroke-linejoin="round" stroke-miterlimit="2.613" stroke-width="8"/>
      </g>
      <g id="Group_34" data-name="Group 34">
        <path id="Path_39" data-name="Path 39" d="M195.78,1480.38s-34.84,46.24-38.64,56.39c0,0-1.9,6.95-6.31,1.9l-6.69-4.56" fill="none" stroke="#c4c4c4" stroke-linecap="round" stroke-linejoin="round" stroke-miterlimit="2.613" stroke-width="8" fill-rule="evenodd"/>
      </g>
      <g id="Group_35" data-name="Group 35">
        <path id="Path_40" data-name="Path 40" d="M143.69,1533.58l.57,18.05c.65,19.95,10.91,6.73,10.91,6.73l40.66-48.22" fill="none" stroke="#c4c4c4" stroke-linecap="round" stroke-linejoin="round" stroke-miterlimit="2.613" stroke-width="8" fill-rule="evenodd"/>
      </g>
      <g id="Group_36" data-name="Group 36">
        <line id="Line_2" data-name="Line 2" x2="9.8" y2="330.59" transform="translate(133.88 1202.99)" fill="none" stroke="#c4c4c4" stroke-linecap="round" stroke-linejoin="round" stroke-miterlimit="2.613" stroke-width="8"/>
      </g>
      <g id="Group_37" data-name="Group 37">
        <path id="Path_41" data-name="Path 41" d="M276.83,49.77c65.24-25.95,170.99-45.6,170.99-45.6A21.954,21.954,0,0,1,450.51,4a21.077,21.077,0,0,1,13.16,4.62l23.41,17.75H516.6L540.04,8.62A21.056,21.056,0,0,1,553.2,4a21.954,21.954,0,0,1,2.69.17c.89.11,105.75,19.65,170.99,45.6" fill="none" stroke="#c4c4c4" stroke-linecap="round" stroke-linejoin="round" stroke-miterlimit="2.613" stroke-width="8" fill-rule="evenodd"/>
      </g>
      <g id="Group_38" data-name="Group 38">
        <path id="Path_42" data-name="Path 42" d="M159.49,441l-20.9-4.75a9.406,9.406,0,0,1-5.63-6.65l-13.37-47.38a112.408,112.408,0,0,1-1.9-16.15,651.852,651.852,0,0,1,6.21-71.68" fill="none" stroke="#c4c4c4" stroke-linecap="round" stroke-linejoin="round" stroke-miterlimit="2.613" stroke-width="8" fill-rule="evenodd"/>
      </g>
      <g id="Group_39" data-name="Group 39">
        <path id="Path_43" data-name="Path 43" d="M476.49,1993.52c9.65.49,19.7.93,30.24,1.33" fill="none" stroke="#c4c4c4" stroke-linecap="round" stroke-linejoin="round" stroke-miterlimit="2.613" stroke-width="8" fill-rule="evenodd"/>
      </g>
      <g id="Group_40" data-name="Group 40">
        <path id="Path_44" data-name="Path 44" d="M85.36,1535.06c-4.37,56.47-8.17,129.8-4.22,178.59,0,0-1.9,128.25,44.65,188.09,0,0,23.75,43.7,127.3,57.95,0,0,2.85,6.65,16.15,2.85,0,0,32.43,22.16,207.07,30.96" fill="none" stroke="#c4c4c4" stroke-linecap="round" stroke-linejoin="round" stroke-miterlimit="2.613" stroke-width="8" fill-rule="evenodd"/>
      </g>
      <g id="Group_41" data-name="Group 41">
        <path id="Path_45" data-name="Path 45" d="M91.19,732.86l-4.35,405.53s3.12,207.47,6.92,306.27c0,0-1.52,12.92-3.57,33.67" fill="none" stroke="#c4c4c4" stroke-linecap="round" stroke-linejoin="round" stroke-miterlimit="2.613" stroke-width="8" fill-rule="evenodd"/>
      </g>
      <g id="Group_42" data-name="Group 42">
        <path id="Path_46" data-name="Path 46" d="M375.14,20.17A366.331,366.331,0,0,0,232.2,55.81c-44.71,21.39-60.8,29.9-92.15,68.4,0,0-13.3,17.1-24.24,52.7,0,0-26.1,36.1-39.41,177.19,0,0-7.6,195.2,16.15,254.1l-.51,48.01L3.57,732.74" fill="none" stroke="#c4c4c4" stroke-linecap="round" stroke-linejoin="round" stroke-miterlimit="2.613" stroke-width="8" fill-rule="evenodd"/>
      </g>
      <g id="Group_43" data-name="Group 43">
        <path id="Path_47" data-name="Path 47" d="M145.09,1610.26s-12.05-43.7-18.35-224.84c0,0-6.99-181.75-7.6-231.79l-1.9-538.29V517.8s0-22.8,6.31,3.8l49.4,328.04s8.89,68.4,10.15,103.24c0,0,6.95,142.5,8.25,245.74,0,0,5.85,280.54,5.85,335.64l.46,80.44s3.19,20.25-8.21,52.55l-18.05,47.61" fill="none" stroke="#c4c4c4" stroke-linecap="round" stroke-linejoin="round" stroke-miterlimit="2.613" stroke-width="8" fill-rule="evenodd"/>
      </g>
      <g id="Group_44" data-name="Group 44">
        <path id="Path_48" data-name="Path 48" d="M207.14,1876.25c36.75,57.64,108.3,79.8,108.3,79.8a290.333,290.333,0,0,0,35.42,9.49" fill="none" stroke="#c4c4c4" stroke-linecap="round" stroke-linejoin="round" stroke-miterlimit="2.613" stroke-width="8" fill-rule="evenodd"/>
      </g>
      <g id="Group_45" data-name="Group 45">
        <path id="Path_49" data-name="Path 49" d="M796.5,1876.25c-36.71,57.64-108.3,79.8-108.3,79.8s-50.3,18.92-166.89,26.55" fill="none" stroke="#c4c4c4" stroke-linecap="round" stroke-linejoin="round" stroke-miterlimit="2.613" stroke-width="8" fill-rule="evenodd"/>
      </g>
      <g id="Group_46" data-name="Group 46">
        <path id="Path_50" data-name="Path 50" d="M105.15,1636.86a86.729,86.729,0,0,0,39.9-26.6,62.769,62.769,0,0,0,8.7-14.55c4.29-9.5,27.89-46.4,43.39-61.44" fill="none" stroke="#c4c4c4" stroke-linecap="round" stroke-linejoin="round" stroke-miterlimit="2.613" stroke-width="8" fill-rule="evenodd"/>
      </g>
      <g id="Group_47" data-name="Group 47">
        <path id="Path_51" data-name="Path 51" d="M101.35,1629.26s-14.55-10.75-20.25-20.25" fill="none" stroke="#c4c4c4" stroke-linecap="round" stroke-linejoin="round" stroke-miterlimit="2.613" stroke-width="8" fill-rule="evenodd"/>
      </g>
      <g id="Group_48" data-name="Group 48">
        <path id="Path_52" data-name="Path 52" d="M114.69,1839.51s-10.15-15.2-14.55-17.71-9.39-13.95-9.39-13.95" fill="none" stroke="#c4c4c4" stroke-linecap="round" stroke-linejoin="round" stroke-miterlimit="2.613" stroke-width="8" fill-rule="evenodd"/>
      </g>
      <g id="Group_49" data-name="Group 49">
        <path id="Path_53" data-name="Path 53" d="M207.14,1876.25s-2.93,1.25-4.22,8.25l-5.28,29.07-3.15,12.05-2.7,6.57" fill="none" stroke="#c4c4c4" stroke-linecap="round" stroke-linejoin="round" stroke-miterlimit="2.613" stroke-width="8" fill-rule="evenodd"/>
      </g>
      <g id="Group_50" data-name="Group 50">
        <path id="Path_54" data-name="Path 54" d="M253.08,1959.55c-99.75-38.38-122.55-69.99-122.55-69.99-4.45-2.55-8.25-13.3-8.25-13.3-8.85-20.9-11.4-100.7-11.4-100.7.65-10.75,5.05,0,5.05,0s20.94,44.95,29.15,65.81,33.55,61.44,60.15,79.19a416.909,416.909,0,0,0,50.06,32.91l13.95,8.89" fill="none" stroke="#c4c4c4" stroke-linecap="round" stroke-linejoin="round" stroke-miterlimit="2.613" stroke-width="8" fill-rule="evenodd"/>
      </g>
      <g id="Group_51" data-name="Group 51">
        <path id="Path_55" data-name="Path 55" d="M501.67,1724.64l-259.72-1.06c-19,0-24.7,6.35-24.7,6.35-19.61,18.35-14.55,44.95-14.55,44.95v.27a81.648,81.648,0,0,0,18.99,52.33c52.55,62.7,279.29,58.25,279.29,58.25h1.67s226.7,4.45,279.29-58.25a81.771,81.771,0,0,0,19.01-52.41v-.19c0-.06,5.05-26.6-14.59-44.95,0,0-5.7-6.35-24.7-6.35l-259.65,1.03" fill="none" stroke="#c4c4c4" stroke-linecap="round" stroke-linejoin="round" stroke-miterlimit="2.613" stroke-width="8" fill-rule="evenodd"/>
      </g>
      <g id="Group_52" data-name="Group 52">
        <path id="Path_56" data-name="Path 56" d="M256.54,1723l-10.11-458.53s-7.6-309.04-22.8-391.39" fill="none" stroke="#c4c4c4" stroke-linecap="round" stroke-linejoin="round" stroke-miterlimit="2.613" stroke-width="8" fill-rule="evenodd"/>
      </g>
      <g id="Group_53" data-name="Group 53">
        <path id="Path_57" data-name="Path 57" d="M238.15,1723,228,1264.47s-5.78-305.89-20.98-388.23" fill="none" stroke="#c4c4c4" stroke-linecap="round" stroke-linejoin="round" stroke-miterlimit="2.613" stroke-width="8" fill-rule="evenodd"/>
      </g>
      <g id="Group_54" data-name="Group 54">
        <path id="Path_58" data-name="Path 58" d="M796.24,876.55s44.72-288.56,56.12-363.61" fill="none" stroke="#c4c4c4" stroke-linecap="round" stroke-linejoin="round" stroke-miterlimit="2.613" stroke-width="8" fill-rule="evenodd"/>
      </g>
      <g id="Group_55" data-name="Group 55">
        <path id="Path_59" data-name="Path 59" d="M207.48,876.55S163.4,587.99,152,512.94" fill="none" stroke="#c4c4c4" stroke-linecap="round" stroke-linejoin="round" stroke-miterlimit="2.613" stroke-width="8" fill-rule="evenodd"/>
      </g>
      <g id="Group_56" data-name="Group 56">
        <path id="Path_60" data-name="Path 60" d="M207.75,876.55c149.37-41.8,293.96-37.66,293.96-37.66h.38s144.39-4.33,293.96,37.66" fill="none" stroke="#c4c4c4" stroke-linecap="round" stroke-linejoin="round" stroke-miterlimit="2.613" stroke-width="8" fill-rule="evenodd"/>
      </g>
      <g id="Group_57" data-name="Group 57">
        <path id="Path_61" data-name="Path 61" d="M191.34,1198.62s-42.44-20.78-62.09-44.23c0,0-3.15-.65-10.11-2.55a293.549,293.549,0,0,1-32.28-13.56" fill="none" stroke="#c4c4c4" stroke-linecap="round" stroke-linejoin="round" stroke-miterlimit="2.613" stroke-width="8" fill-rule="evenodd"/>
      </g>
      <g id="Group_58" data-name="Group 58">
        <path id="Path_62" data-name="Path 62" d="M87.14,1070.68s-6.31,1.25-6.65-7.6c0,0-1.9-43.39,6.35-41.49" fill="none" stroke="#c4c4c4" stroke-linecap="round" stroke-linejoin="round" stroke-miterlimit="2.613" stroke-width="8" fill-rule="evenodd"/>
      </g>
      <g id="Group_59" data-name="Group 59">
        <path id="Path_63" data-name="Path 63" d="M86.84,1109.32s-5.09,2.17-6.65-6.04c0,0-3-4.75-5.85-51.3v-7.26s-.8-45.29,12.5-50.69" fill="none" stroke="#c4c4c4" stroke-linecap="round" stroke-linejoin="round" stroke-miterlimit="2.613" stroke-width="8" fill-rule="evenodd"/>
      </g>
      <g id="Group_60" data-name="Group 60">
        <path id="Path_64" data-name="Path 64" d="M99.19,1548.78s-6.23,1.52-6.95-7.33c0,0-3.8-43.24,4.48-41.8" fill="none" stroke="#c4c4c4" stroke-linecap="round" stroke-linejoin="round" stroke-miterlimit="2.613" stroke-width="8" fill-rule="evenodd"/>
      </g>
      <g id="Group_61" data-name="Group 61">
        <path id="Path_65" data-name="Path 65" d="M100.59,1587.31s-4.98,2.39-6.92-5.78c0,0-3.19-4.56-8.09-50.96l-.3-7.26s-2.81-45.22,10.22-51.18" fill="none" stroke="#c4c4c4" stroke-linecap="round" stroke-linejoin="round" stroke-miterlimit="2.613" stroke-width="8" fill-rule="evenodd"/>
      </g>
      <g id="Group_62" data-name="Group 62">
        <path id="Path_66" data-name="Path 66" d="M101.73,713.49c2.55,1.63,8.93,4.45,12.65-4.1,0,0,5.21-28.04-2.39-39.9a5.17,5.17,0,0,0-4.07-1.98,5.231,5.231,0,0,0-2.36.57" fill="none" stroke="#c4c4c4" stroke-linecap="round" stroke-linejoin="round" stroke-miterlimit="2.613" stroke-width="8" fill-rule="evenodd"/>
      </g>
      <g id="Group_63" data-name="Group 63">
        <path id="Path_67" data-name="Path 67" d="M190.84,1160.62s-43.89-25.8-62.32-52.63" fill="none" stroke="#c4c4c4" stroke-linecap="round" stroke-linejoin="round" stroke-miterlimit="2.613" stroke-width="8" fill-rule="evenodd"/>
      </g>
      <g id="Group_64" data-name="Group 64">
        <path id="Path_68" data-name="Path 68" d="M159.99,764.49s-23.75-13.3-34.69-27.09V721.25s19.95,18.05,31.35,24.24" fill="none" stroke="#c4c4c4" stroke-linecap="round" stroke-linejoin="round" stroke-miterlimit="2.613" stroke-width="8" fill-rule="evenodd"/>
      </g>
      <g id="Group_65" data-name="Group 65">
        <path id="Path_69" data-name="Path 69" d="M134.79,1115.02s-2.85-188.55-3.8-370.45" fill="none" stroke="#c4c4c4" stroke-linecap="round" stroke-linejoin="round" stroke-miterlimit="2.613" stroke-width="8" fill-rule="evenodd"/>
      </g>
      <g id="Group_66" data-name="Group 66">
        <path id="Path_70" data-name="Path 70" d="M130.99,725.99l-2.85-101.27a51.379,51.379,0,0,0,11.4,8.17" fill="none" stroke="#c4c4c4" stroke-linecap="round" stroke-linejoin="round" stroke-miterlimit="2.613" stroke-width="8" fill-rule="evenodd"/>
      </g>
      <g id="Group_67" data-name="Group 67">
        <path id="Path_71" data-name="Path 71" d="M191.34,1234.72s-43.24-18.05-60.8-34.69l-2.39-91.2" fill="none" stroke="#c4c4c4" stroke-linecap="round" stroke-linejoin="round" stroke-miterlimit="2.613" stroke-width="8" fill-rule="evenodd"/>
      </g>
      <g id="Group_68" data-name="Group 68">
        <path id="Path_72" data-name="Path 72" d="M497.77,1977.75l-.55-3s.49-3.8,5.7-2.85" fill="none" stroke="#c4c4c4" stroke-linecap="round" stroke-linejoin="round" stroke-miterlimit="2.613" stroke-width="8" fill-rule="evenodd"/>
      </g>
      <g id="Group_69" data-name="Group 69">
        <path id="Path_73" data-name="Path 73" d="M497.23,1977.1s-11.4-2.36-3.31-9.01l7.6-.49" fill="none" stroke="#c4c4c4" stroke-linecap="round" stroke-linejoin="round" stroke-miterlimit="2.613" stroke-width="8" fill-rule="evenodd"/>
      </g>
      <g id="Group_70" data-name="Group 70">
        <path id="Path_74" data-name="Path 74" d="M129.59,561.65s-2.85-34.65,21.35-49.4c0,0,9.04-4.26,10.94-19.95a136.405,136.405,0,0,1,13.3-33.25c5.87-10.44,11.4-21.85,10.91-39.41" fill="none" stroke="#c4c4c4" stroke-linecap="round" stroke-linejoin="round" stroke-miterlimit="2.613" stroke-width="8" fill-rule="evenodd"/>
      </g>
      <g id="Group_71" data-name="Group 71">
        <path id="Path_75" data-name="Path 75" d="M150.94,512.25s-3.8-55.55,13.3-75.5c0,0,8.09-16.15,51.3-29.94,0,0,100.24-40.85,273.14-45.6h26.37c172.89,4.75,273.1,45.6,273.1,45.6,43.24,13.79,51.3,29.94,51.3,29.94,17.1,19.95,13.3,75.5,13.3,75.5" fill="none" stroke="#c4c4c4" stroke-linecap="round" stroke-linejoin="round" stroke-miterlimit="2.613" stroke-width="8" fill-rule="evenodd"/>
      </g>
      <g id="Group_72" data-name="Group 72">
        <path id="Path_76" data-name="Path 76" d="M465.88,8.77a67.134,67.134,0,0,1,20.9-5.21l15.2,8.93" fill="none" stroke="#c4c4c4" stroke-linecap="round" stroke-linejoin="round" stroke-miterlimit="2.613" stroke-width="8" fill-rule="evenodd"/>
      </g>
      <g id="Group_73" data-name="Group 73">
        <path id="Path_77" data-name="Path 77" d="M134.34,530.41s-9.5-217.12,69.65-378.01a235.791,235.791,0,0,1,25.58-41.02" fill="none" stroke="#c4c4c4" stroke-linecap="round" stroke-linejoin="round" stroke-miterlimit="2.613" stroke-width="8" fill-rule="evenodd"/>
      </g>
      <g id="Group_74" data-name="Group 74">
        <path id="Path_78" data-name="Path 78" d="M868.59,530.41s9.5-217.12-69.65-378.01a236.018,236.018,0,0,0-25.62-41.05" fill="none" stroke="#c4c4c4" stroke-linecap="round" stroke-linejoin="round" stroke-miterlimit="2.613" stroke-width="8" fill-rule="evenodd"/>
      </g>
      <g id="Group_75" data-name="Group 75">
        <path id="Path_79" data-name="Path 79" d="M254.98,84.31c71.25-42.29,196.64-62.62,196.64-62.62a15.145,15.145,0,0,1,12.84,3.23c5.21,3.8,20.9,14.25,20.9,14.25l16.15.49h.68l16.15-.49s15.69-10.45,20.9-14.25a15.167,15.167,0,0,1,12.85-3.23c1.01.21,125.4,20.33,196.64,62.62" fill="none" stroke="#c4c4c4" stroke-linecap="round" stroke-linejoin="round" stroke-miterlimit="2.613" stroke-width="8" fill-rule="evenodd"/>
      </g>
      <g id="Group_76" data-name="Group 76">
        <path id="Path_80" data-name="Path 80" d="M890.97,1772.4s6.35-67.14,19.65-350.23" fill="none" stroke="#c4c4c4" stroke-linecap="round" stroke-linejoin="round" stroke-miterlimit="2.613" stroke-width="8" fill-rule="evenodd"/>
      </g>
      <g id="Group_77" data-name="Group 77">
        <path id="Path_81" data-name="Path 81" d="M112.75,1772.4s-6.35-67.14-19.65-350.23" fill="none" stroke="#c4c4c4" stroke-linecap="round" stroke-linejoin="round" stroke-miterlimit="2.613" stroke-width="8" fill-rule="evenodd"/>
      </g>
      <g id="Group_78" data-name="Group 78">
        <line id="Line_3" data-name="Line 3" y1="33.1" x2="93.06" transform="translate(6.55 716.19)" fill="none" stroke="#c4c4c4" stroke-linecap="round" stroke-linejoin="round" stroke-miterlimit="2.613" stroke-width="8"/>
      </g>
      <g id="Group_79" data-name="Group 79">
        <line id="Line_4" data-name="Line 4" x1="87.74" y1="31.2" transform="translate(903.55 716.19)" fill="none" stroke="#c4c4c4" stroke-linecap="round" stroke-linejoin="round" stroke-miterlimit="2.613" stroke-width="8"/>
      </g>
      <g id="Group_80" data-name="Group 80">
        <path id="Path_82" data-name="Path 82" d="M521.58,407.34l.61-4.26-41.04-.84v1.52l-8.82-.65s-36.06-8.13-50.31-10.03l-18.05.49v-1.06l-114.3,5.32-8.06,1.9a72.056,72.056,0,0,1,2.35,10.45l29.45-.95,37.05-6.16,17.59-3.34,35.61-2.85.34-.72,17.97-.23,52.97,11.63" fill="none" stroke="#c4c4c4" stroke-linecap="round" stroke-linejoin="round" stroke-miterlimit="2.613" stroke-width="8" fill-rule="evenodd"/>
      </g>
      <g id="Group_81" data-name="Group 81">
        <path id="Path_83" data-name="Path 83" d="M483.89,368.08l63.95,6.35s3.8,2.51,103.85,7.6a39.393,39.393,0,0,1,15.84,6.65l67.75,36.29,6.35.76,32.95,19-2.55,4.41-5.05,3.19-30.4-16.49-2.55-5.7-74.74-43.7-5.05-1.25-87.4-3.8s-24.05-1.9-37.35.65c-7.56.58-15.2.92-22.8.92s-15.24-.34-22.81-.93" fill="none" stroke="#c4c4c4" stroke-linecap="round" stroke-linejoin="round" stroke-miterlimit="2.613" stroke-width="8" fill-rule="evenodd"/>
      </g>
      <g id="Group_82" data-name="Group 82">
        <path id="Path_84" data-name="Path 84" d="M734.03,430.17l-51.29-27.89-3.16,4.41,56.96,29.18" fill="none" stroke="#c4c4c4" stroke-linecap="round" stroke-linejoin="round" stroke-miterlimit="2.613" stroke-width="8" fill-rule="evenodd"/>
      </g>
      <g id="Group_83" data-name="Group 83">
        <path id="Path_85" data-name="Path 85" d="M772.03,449.17l62.05,35.46-2.96,5.66-64.18-37.96" fill="none" stroke="#c4c4c4" stroke-linecap="round" stroke-linejoin="round" stroke-miterlimit="2.613" stroke-width="8" fill-rule="evenodd"/>
      </g>
      <g id="Group_84" data-name="Group 84">
        <path id="Path_86" data-name="Path 86" d="M334.36,1953.43c101.61,28.01,142.19,25,142.19,25" fill="none" stroke="#c4c4c4" stroke-linecap="round" stroke-linejoin="round" stroke-miterlimit="2.613" stroke-width="8" fill-rule="evenodd"/>
      </g>
      <g id="Group_85" data-name="Group 85">
        <path id="Path_87" data-name="Path 87" d="M482.52,1991.54l4.41,4.52h29.98l4.41-4.52" fill="none" stroke="#c4c4c4" stroke-linecap="round" stroke-linejoin="round" stroke-miterlimit="2.613" stroke-width="8" fill-rule="evenodd"/>
      </g>
      <g id="Group_86" data-name="Group 86">
        <path id="Path_88" data-name="Path 88" d="M364.46,72.53s-68.4,169.09-87.4,313.49" fill="none" stroke="#c4c4c4" stroke-linecap="round" stroke-linejoin="round" stroke-miterlimit="2.613" stroke-width="8" fill-rule="evenodd"/>
      </g>
      <g id="Group_87" data-name="Group 87">
        <path id="Path_89" data-name="Path 89" d="M636.19,72.53s68.4,169.09,87.4,313.49" fill="none" stroke="#c4c4c4" stroke-linecap="round" stroke-linejoin="round" stroke-miterlimit="2.613" stroke-width="8" fill-rule="evenodd"/>
      </g>
      <g id="Group_88" data-name="Group 88">
        <path id="Path_90" data-name="Path 90" d="M840.43,1687.48l-13.3-32.3a133.655,133.655,0,0,1-5.7-37.99c-.05-12.86-1.9-45.86,3.8-34.47l26.6,59.89" fill="none" stroke="#c4c4c4" stroke-linecap="round" stroke-linejoin="round" stroke-miterlimit="2.613" stroke-width="8" fill-rule="evenodd"/>
      </g>
      <g id="Group_89" data-name="Group 89">
        <path id="Path_91" data-name="Path 91" d="M162.15,1687.48l13.3-32.3a133.6,133.6,0,0,0,5.7-37.99c.05-12.86,1.9-45.86-3.8-34.47l-25.8,56.66" fill="none" stroke="#c4c4c4" stroke-linecap="round" stroke-linejoin="round" stroke-miterlimit="2.613" stroke-width="8" fill-rule="evenodd"/>
      </g>
      <g id="Group_90" data-name="Group 90">
        <path id="Path_92" data-name="Path 92" d="M789.13,1818.57a94.847,94.847,0,0,1,24.85,31.96" fill="none" stroke="#c4c4c4" stroke-linecap="round" stroke-linejoin="round" stroke-miterlimit="2.613" stroke-width="8" fill-rule="evenodd"/>
      </g>
      <g id="Group_91" data-name="Group 91">
        <path id="Path_93" data-name="Path 93" d="M201.56,1768.57s-21.7,31.65-13,81.96" fill="none" stroke="#c4c4c4" stroke-linecap="round" stroke-linejoin="round" stroke-miterlimit="2.613" stroke-width="8" fill-rule="evenodd"/>
      </g>
      <g id="Group_92" data-name="Group 92">
        <path id="Path_94" data-name="Path 94" d="M192.32,1844.56a89.032,89.032,0,0,0,16.22,34.54" fill="none" stroke="#c4c4c4" stroke-linecap="round" stroke-linejoin="round" stroke-miterlimit="2.613" stroke-width="8" fill-rule="evenodd"/>
      </g>
      <g id="Group_93" data-name="Group 93">
        <path id="Path_95" data-name="Path 95" d="M214.06,1818.57a94.56,94.56,0,0,0-24.85,31.95" fill="none" stroke="#c4c4c4" stroke-linecap="round" stroke-linejoin="round" stroke-miterlimit="2.613" stroke-width="8" fill-rule="evenodd"/>
      </g>
      <g id="Group_94" data-name="Group 94">
        <line id="Line_5" data-name="Line 5" x1="13.79" y1="8.81" transform="translate(128.41 636.09)" fill="none" stroke="#c4c4c4" stroke-linecap="round" stroke-linejoin="round" stroke-miterlimit="2.613" stroke-width="8"/>
      </g>
      <g id="Group_95" data-name="Group 95">
        <path id="Path_96" data-name="Path 96" d="M93.49,610.21s11.86-11.63,23.75,5.24l10.91,9.39V554.92" fill="none" stroke="#c4c4c4" stroke-linecap="round" stroke-linejoin="round" stroke-miterlimit="2.613" stroke-width="8" fill-rule="evenodd"/>
      </g>
      <g id="Group_96" data-name="Group 96">
        <path id="Path_97" data-name="Path 97" d="M873.15,725.99l2.89-101.27a51.61,51.61,0,0,1-11.4,8.17" fill="none" stroke="#c4c4c4" stroke-linecap="round" stroke-linejoin="round" stroke-miterlimit="2.613" stroke-width="8" fill-rule="evenodd"/>
      </g>
      <g id="Group_97" data-name="Group 97">
        <line id="Line_6" data-name="Line 6" y1="8.81" x2="13.79" transform="translate(861.94 636.09)" fill="none" stroke="#c4c4c4" stroke-linecap="round" stroke-linejoin="round" stroke-miterlimit="2.613" stroke-width="8"/>
      </g>
      <g id="Group_98" data-name="Group 98">
        <path id="Path_98" data-name="Path 98" d="M910.73,610.21s-11.89-11.63-23.75,5.24l-10.91,9.39V554.92" fill="none" stroke="#c4c4c4" stroke-linecap="round" stroke-linejoin="round" stroke-miterlimit="2.613" stroke-width="8" fill-rule="evenodd"/>
      </g>
      <g id="Group_99" data-name="Group 99">
        <path id="Path_99" data-name="Path 99" d="M844.19,441l20.9-4.75a9.408,9.408,0,0,0,5.66-6.65l13.38-47.38a112.413,112.413,0,0,0,1.9-16.15,666.362,666.362,0,0,0-6.19-71.69" fill="none" stroke="#c4c4c4" stroke-linecap="round" stroke-linejoin="round" stroke-miterlimit="2.613" stroke-width="8" fill-rule="evenodd"/>
      </g>
    </g>
  </g>
</svg>
