<svg xmlns="http://www.w3.org/2000/svg" width="1001.515" height="1992.679" viewBox="0 0 1001.515 1992.679">
  <path id="carbody" d="M497.865,1992.679H450.711l-141.4-18.807-77.319-20.2-66.173-18.806-32.738-23.683L108.7,1879.14l-13.234-43.884-13.235-59.207-4.875-96.822,4.875-142.1V1503l9.056-42.49v-23.683L87.8,1244.57l-2.786-156.726L88.457,718.69,3.332,748.085,0,734.226l90.043-81.482,1.939-40.652-6.79-23.873L75.3,521.447,72.827,401.094l4.946-75.427,11.582-78.89L114,169.084l29.471-52.511,25.2-27.871L227.01,55.094l82.434-29.73h32.169l105.6-23.657,19.023,6.828L485.505,0l15.253,10.533L516.01,0l19.267,8.536L554.3,1.707,659.9,25.365h32.169L774.5,55.094,832.842,88.7l25.2,27.871,29.47,52.511,24.647,77.693,11.582,78.89,4.946,75.427-2.473,120.353-9.892,66.772-6.79,23.873,1.94,40.652,90.042,81.482-3.332,13.859L913.057,718.69l3.442,369.154-2.786,156.726-3.483,192.252v23.683l9.056,42.49v34.132l4.876,142.1-4.876,96.822-13.234,59.207-13.235,43.884-24.379,32.042L835.7,1934.865l-66.173,18.806-77.319,20.2-141.4,18.807Z" fill="#707070" opacity="0.17"/>
</svg>
